<?xml version="1.0" standalone="no"?>
<!DOCTYPE svg PUBLIC "-//W3C//DTD SVG 1.1//EN" "http://www.w3.org/Graphics/SVG/1.1/DTD/svg11.dtd" >
<svg xmlns="http://www.w3.org/2000/svg">
<metadata></metadata>
<defs>
<font id="fighting_spirit_tbsbold" horiz-adv-x="1139" >
<font-face units-per-em="2048" ascent="1638" descent="-410" />
<missing-glyph horiz-adv-x="569" />
<glyph horiz-adv-x="0" />
<glyph unicode="&#xd;" horiz-adv-x="569" />
<glyph unicode=" "  horiz-adv-x="569" />
<glyph unicode="&#x09;" horiz-adv-x="569" />
<glyph unicode="&#xa0;" horiz-adv-x="569" />
<glyph unicode="!" horiz-adv-x="830" d="M0 -20l150 217h42l-95 -18v42l242 129v-15q52 41 52 74h63q-32 -101 -32 -131v-11l18 -23l-68 -68h-25l62 -5v-34q-83 -52 -262 -110q-84 -47 -147 -47zM173 829l84 463q12 101 12 173q0 105 -38 157v18l12 14l-44 15v26q50 50 204 102v-30h-108v44q306 30 398 82 q67 -55 67 -106v1q16 0 16 -39v-10q0 -42 -131 -369l3 -26v-7l-16 -40h-41l134 103v-50q0 -42 -140 -254q-93 -164 -270 -608q-47 -89 -47 -115h-58l50 617q0 28 -6 40h32l-57 -239h-43z" />
<glyph unicode="&#x22;" horiz-adv-x="727" />
<glyph unicode="#" />
<glyph unicode="$" />
<glyph unicode="%" horiz-adv-x="1821" />
<glyph unicode="&#x26;" horiz-adv-x="1366" />
<glyph unicode="'" horiz-adv-x="391" />
<glyph unicode="(" horiz-adv-x="682" />
<glyph unicode=")" horiz-adv-x="682" />
<glyph unicode="*" horiz-adv-x="797" />
<glyph unicode="+" horiz-adv-x="1196" />
<glyph unicode="," horiz-adv-x="569" />
<glyph unicode="-" horiz-adv-x="682" />
<glyph unicode="." horiz-adv-x="569" />
<glyph unicode="/" horiz-adv-x="569" />
<glyph unicode="0" horiz-adv-x="1189" d="M0 856v71q60 181 89 335q26 100 108 302l26 113q17 0 60 42h54l-43 -13h-52q50 65 183 111q20 0 95 57q186 -24 215 -55q87 -44 148 -115q79 -100 101 -119v-50q-13 20 -33 139h52q99 -224 99 -303l35 -155h-42l56 33l13 -41q0 -79 -88 -297q-14 -103 -103 -251 q-89 -271 -180 -371q-282 -295 -358 -295q-23 -14 -70 -14h-3q-68 0 -139 154q-14 0 -14 23l10 -10h34v-17h-57v25l-3 18l3 17q-18 100 -91 340q-20 222 -43 372l30 155v-18h37q-54 -93 -129 -183zM344 945q0 -258 54 -480q51 -61 51 -31q122 127 152 140l47 12v-31l-3 -55 v13h-39l225 503q61 147 61 226l-3 104q0 11 -6 19q0 46 -49 -99q0 -31 -31 -31h-28v22q-19 121 -66 208q-13 16 -6 12l4 3h-18q-140 23 -140 -24q1 2 -127 -236l3 12h-36l102 69v-54q-75 -113 -147 -302z" />
<glyph unicode="1" horiz-adv-x="970" d="M0 1404q502 494 529 495h16q177 -99 170 -99l-23 87h53q80 -112 170 -164q-342 -809 -341 -806q30 31 92 31l10 -29q0 -52 -147 -250q-208 -428 -330 -594h-55l50 140v-19h36q-68 -99 -164 -216h-42v135q8 12 94 368v-18h40l-38 -102h-55q107 571 217 958q63 107 63 110 h23q-51 -6 -230 -64l-55 -6l-24 24q15 44 121 109l-8 -14h41q-59 -23 -145 -76h-68z" />
<glyph unicode="2" horiz-adv-x="1394" d="M0 1354q65 -54 72 -68h-39v-18l-7 42q0 118 137 359q42 51 104 106l30 -30q-78 -168 -78 -309l1 -4h-38q48 135 185 270q108 100 220 160h72q-150 -126 -149 -91q91 88 329 88q240 0 394 -155l25 -95q-8 -118 -277 -525q-116 -165 -264 -332q-29 -50 -29 -49 q-18 0 65 105h42v-28q-50 -91 -117 -181h-51q128 104 439 314q161 121 223 191q45 66 134 121v-50q-93 -206 -241 -389q-168 -193 -296 -376q-84 -101 -182 -166h-37q0 53 82 122l-9 -15h45q-89 -56 -299 -260q-137 -111 -269 -111l-10 31l18 34h32q-179 30 -179 65 q161 420 294 559l292 363q188 277 202 328l3 23q-3 26 -26 82h-7l-63 80h35v22q39 -62 39 -87l-37 -37q-43 76 -102 76q-148 0 -414 -191q-36 -43 -36 -24l49 42v-57q-29 -70 -29 -104v-43q0 -54 91 -173h-57q-39 29 -145 82q-144 94 -144 170q-23 63 -23 133zM172 1403 l4 -20h41l2 17h-37l4 3h-14zM552 527q57 0 58 1h-57z" />
<glyph unicode="3" horiz-adv-x="1572" d="M0 1357v23q0 26 86 69v-27l-57 3v28q201 240 322 287l22 -21v-12l-26 -90h-33q72 23 285 141q85 45 147 45v-30l-23 -25h-50q321 69 479 124l44 7l12 -34q-38 -75 -140 -355q-26 -69 -60 -135h-34q56 0 399 104q125 46 198 104h46q-43 -120 -43 -115h-32l26 19h39l5 -58 v-29q0 -56 -74 -275q-31 -157 -238 -503q-75 -128 -229 -209q-371 -232 -634 -340q-11 0 -117 -68l-55 -9q0 70 192 216q248 245 300 335l143 173h41v-24l-13 -74v19h-37q159 267 170 399l1 25l-525 -142h-22l-17 17v19q35 23 259 115v-29q-21 0 -331 -148l-53 -22h-74 q214 156 290 230q145 176 261 363v-18h22q-45 0 -94 109q-208 -97 -406 -158q-57 -19 -57 -5l45 -54v-29h-35q-139 64 -325 64z" />
<glyph unicode="4" horiz-adv-x="1583" d="M0 675v40q148 216 248 418q45 62 85 130h49l-126 -150v71q64 177 200 465l44 131l-29 58l24 24q184 -55 184 -91l-88 81l-5 8q245 -172 245 -224q0 -38 3 -31q-8 -10 44 -10v-28q-19 -83 -248 -444l-57 -96h-40q90 23 439 71q112 292 112 370q0 10 -34 43v11q0 51 91 89 v-25q4 0 -94 61v27l151 37v-16l-47 69h53l28 -7h19q71 -18 231 -107l90 -35q0 -51 -87 -173q-51 -95 -166 -368v6h-30q54 34 158 126v-62q-211 -366 -340 -548q-210 -281 -370 -508l-124 -156v74q97 336 256 748q0 57 55 215q-155 -68 -349 -119z" />
<glyph unicode="5" horiz-adv-x="1552" d="M0 -101l534 378q180 180 307 350l155 175q117 126 117 199q-120 135 -255 135l-127 4l-9 27q0 43 118 87v-29h18l-95 3q-105 0 -461 -127l-153 -48l-20 20v10q0 55 91 206q15 27 21 69v-18h38q-24 -46 -71 -46v27q0 41 57 144q8 30 24 195q5 0 5 -17h-26q-100 9 -100 56 q47 30 145 57v-28l-9 1h-53v43q643 102 1019 102h88l20 -20v-25l-39 -8h9v17q0 -10 76 -10v-27q-31 -62 -27 -49l50 54v-64q0 -80 -116 -217q0 -12 -63 -73l-60 99q-76 40 -564 90l-67 -126h-46l119 109v-59q-39 -132 -139 -248h-50q246 89 334 93q88 19 64 19l24 -23v33h83 v-46h-7q0 27 10 26v-25q2 -8 -20 -8v50q157 -19 322 -127q70 -65 70 -61h-46v-20l-97 215q248 -217 310 -283q87 -111 87 -192v-10q0 -76 -130 -212l46 61q-17 -10 51 -10v-34q-83 -71 -138 -107q-390 -273 -480 -296q-112 -49 -448 -245zM926 1389v47h66v-47h-66z M1407 1702v83h83z" />
<glyph unicode="6" horiz-adv-x="1189" d="M0 700q0 122 124 441q76 174 302 430q287 301 418 304l17 -17q0 -61 -59 -87q-119 -98 -174 -191l-36 -52h-50q117 119 270 201q182 104 311 112v-48q-48 0 -315 -139q-93 -64 -190 -198q-179 -274 -189 -313v12h-39q58 143 146 143v-26q-49 -148 -143 -386h-42 q69 63 200 147l7 -7l-28 -9l12 -12v21q105 54 157 54v-38l-49 -20v29h-27q185 62 339 62h17q135 -118 135 -157q19 -54 19 -113v-36q0 -87 -39 -188h-50v19h47q0 -57 -140 -348q-10 -59 -93 -141q-123 -111 -167 -164l-45 -5h-8q-119 0 -442 141q-167 183 -167 518 q0 135 26 207v-20h41l-46 -126h-50zM367 351h46l119 -119q62 56 119 159l112 164h47q-17 -82 -17 -108v11h-40q45 114 45 185l29 171l-13 67h43q0 -10 -20 -107h-52q0 71 -48 93l14 -4q-24 -40 -57 -40q-47 -24 -221 -221v71l4 13q-20 -14 -36 -71q-44 -54 -44 -116 q0 -56 28 -190h-42v-16z" />
<glyph unicode="7" horiz-adv-x="1747" d="M0 1724v32q62 34 463 68q276 17 533 17h32v-43l-107 -18v33h-15q95 28 471 49l83 3h264l31 -32l-84 -43v29l26 1h34l20 -20q0 -69 -127 -168q-35 -37 -35 -13l-11 -2q35 0 35 -30q0 -33 -135 -187l-316 -402q-55 -72 -57 -80h-28l116 14v-33q-334 -345 -980 -1053v72 q167 288 295 552q181 245 181 243h29l-116 -62v46q183 264 183 275q31 163 58 163v-10q0 109 181 424q16 36 16 59l4 -4q-294 -105 -535 -172l15 -144h-49q-68 106 -60 105l30 -108h-44q-70 52 -145 94l-57 -16q-43 62 -133 278h46q25 -14 47 -14h-44q-76 87 -115 97z M38 1645v31h32q22 0 45 -40v-28h-40zM162 -160l81 117v-89l-81 -126v98z" />
<glyph unicode="8" horiz-adv-x="1354" d="M0 453v28h34l56 -23v-30q-21 31 -38 217l-38 114q53 12 114 127q123 165 261 401l2 9q-92 103 -135 243q-30 50 -30 76q84 63 151 102v-24h24l-138 -14l-31 31q67 64 385 94l78 3l16 4l172 -24q-26 27 -99 52q0 -1 3 -1l-16 17v33h31q100 -20 282 -144q127 -96 127 -129 q22 -27 6 -27l71 43l14 -41q0 -66 -255 -331l3 6h-26l5 -1q103 32 268 100l-134 -173v23h39q74 -130 118 -264q27 -78 52 -289h-43l45 -45q-4 12 -4 -217q-41 0 -221 -171q-271 -177 -338 -177q-30 -11 -172 -40l-58 -32q-128 31 -427 292q-71 75 -154 182zM351 707l47 -48 v95zM413 708q58 -90 111 -228l-6 -6v7q45 -111 45 -198l4 -6q83 10 256 108q1 29 162 203q-24 79 -24 262l-14 56h42v-92q-99 187 -220 232l-90 15l-58 -7q0 -12 -154 -223zM590 1452l10 6q27 -36 27 -58v-17l-1 -18q7 0 47 -75q46 -14 45 -11q112 52 193 142 q105 124 105 130h19q-40 0 -131 78l53 -19v-1h-58q-76 36 -242 36h-13v19q4 -13 100 -48v-39q-72 0 -129 -27v8q0 -34 -25 -106z" />
<glyph unicode="9" horiz-adv-x="1251" d="M0 1080v32l19 5q-16 51 -16 93q0 31 33 248l4 69q106 160 122 168q346 106 727 201q-103 -86 -103 -88q0 -23 148 -73q270 -72 270 -111l-17 -17h-24l11 -2v25q2 -5 101 -54q27 -32 27 -52q-2 -19 -160 -248q-70 -104 -140 -290q-173 -277 -173 -341q-26 -84 -47 -96h-36 v24l-4 -41l-336 -370l-238 -214v60q256 359 370 601q167 320 162 314h60q-185 -187 -310 -187l-19 20q16 35 16 46h22q-106 0 -304 187q-57 41 -165 91zM340 1267q83 -93 115 -102l82 -58q123 34 226 131v-65l2 4q29 0 106 265v-39q34 28 22 -13h-34l-33 18l-5 -1 q-29 0 -172 118l41 -14l20 -39q-76 0 -241 -88q-131 -69 -121 -59q-2 0 -2 -28zM764 631q47 0 42 -15v19h-40z" />
<glyph unicode=":" horiz-adv-x="569" />
<glyph unicode=";" horiz-adv-x="569" />
<glyph unicode="&#x3c;" horiz-adv-x="1196" />
<glyph unicode="=" horiz-adv-x="1196" />
<glyph unicode="&#x3e;" horiz-adv-x="1196" />
<glyph unicode="?" horiz-adv-x="1332" d="M0 1521l9 -6q170 144 322 218q108 54 240 104v-53q-30 -6 1 14q171 56 323 56q83 9 251 9h93v-35q-47 -33 -47 -41l-8 3l116 37l20 -21v-13q0 -52 -98 -194l-56 -164q-137 -228 -198 -452l-50 -123h-49v23q0 71 -15 38q48 58 -25 -75q-112 -148 -112 -190 q-25 -69 -25 -101h-56v23q0 219 212 752q28 73 69 228q4 0 -5 -34l32 24q-52 23 -122 23h-49q-143 0 -213 -42q-45 -10 -45 0q0 -34 90 -192v-44l-140 75v37q40 -92 139 -213h-57q-342 116 -343 156q-84 84 -134 103v48zM336 203h45q0 5 60 140h49v-18h-30q258 164 282 164 l43 9v-36q-109 -102 -109 -116h-21q21 0 170 56l60 6v-31q-75 -95 -113 -190q-27 -86 -52 -86q-92 -20 -81 -12q16 -23 16 -49l-163 -60h-27l-48 120l30 19h24l3 -3h-50q6 -9 -88 87z" />
<glyph unicode="@" horiz-adv-x="2079" />
<glyph unicode="A" horiz-adv-x="1257" d="M0 11q43 65 142 393l408 1020v-47q-26 -31 -77 -31l-20 20q96 222 129 277l32 37h-36q-49 0 -171 67l-28 6v46q63 -11 135 -11h90q96 0 139 -13v-33l-103 110l23 23h15q61 0 247 -60q26 -9 67 -118q26 -22 51 -112l69 -364h-52l-41 71h37v17l10 -116l-3 -164l12 -160v-5 l-3 -86q23 -353 61 -603l36 -86h-46q-28 17 -60 114l8 -8h33v17q0 -95 -54 -190h-47q0 123 -158 349l-92 170q157 -151 157 -160q0 -1 -1 -1q-22 117 -22 150v64l-8 167h29l-288 -200v52l38 48h50q-138 -86 -245 -181q-105 -65 -127 -94q-119 -191 -336 -452v77zM344 1754 v47h56v-47h-56zM525 795q59 33 203 99l73 45h37v-26l-19 -41h-32q11 0 81 50v-6q0 105 -76 301l7 -25q6 8 -189 -342l-38 -55h-47z" />
<glyph unicode="B" horiz-adv-x="1843" d="M-18 -85q74 66 266 203q8 5 8 78q48 438 69 533q37 139 37 192v-17h38q-45 -83 -103 -120v46q42 173 110 533l51 166v2q0 20 -23 91l2 2q60 13 5 13h-56v47q59 0 192 89v-16l-93 51v37q117 0 271 -54q0 -6 -4 -6q-16 0 -94 91h60q225 -144 268 -163q69 -19 183 -79 q220 -69 268 -134l-130 11h23v28q174 -74 339 -74v-30q-336 -336 -399 -357q-106 -74 -111 -74v36h-23q172 55 389 55l45 -3l380 -11v-30q-153 -145 -386 -293q-320 -210 -532 -336l-223 -127h-60l62 77v-56l-85 -17l9 8h60q-23 -43 -74 -74h-67l30 30v-23h29l-37 -21v27 h-25l98 19q-181 -151 -392 -271q-4 0 -84 -148h-48v24q0 63 1 66q-23 -8 -224 -58l-20 19v18zM424 276q227 196 285 269l107 132h47q-16 -61 -18 -99h-29q11 5 78 97q151 157 144 151h59q-411 -36 -411 -48q-89 -16 -89 -17q-48 -156 -83 -390q-53 -87 -54 -95h-36zM521 874 l422 220q139 133 206 161l40 40l36 -5h-10l-3 -2l-170 69v34l38 -65v-47q-115 57 -247 88v21q-43 -156 -138 -364q-37 -83 -45 -112l29 -28q-42 0 -33 33q-19 -13 -27 -23h44zM644 226l46 47h68l-47 -47h-67z" />
<glyph unicode="C" horiz-adv-x="1625" d="M0 323q46 67 141 287l-4 4v10q0 87 169 363q65 113 254 282l85 52v-27h26q-78 -20 -218 -108q-72 -45 -95 -45h-60q458 393 687 515q163 90 474 235l27 -27l-10 -16l10 -92q-150 -142 -150 -146h-27q269 86 415 86v-47q-38 0 -508 -288v26h-28l206 48q-123 -66 -240 -143 q-131 -86 -348 -298q-313 -354 -313 -446h11l-21 -108v18h-42q10 41 65 93h18q41 0 45 -107l-3 -33v31l-34 -34h43l106 -6q485 95 764 187l156 47v-39q-98 -97 -172 -125v29h-32q37 27 146 27h85v-39q-375 -144 -1005 -417q-166 -92 -251 -92h-19l-24 24l6 61 q-62 27 -267 190z" />
<glyph unicode="D" horiz-adv-x="1746" d="M0 1745v45q457 34 554 34l248 -6h41q0 -13 40 -13q336 -48 444 -96q32 -20 53 -20h-22v-29q-28 12 -253 207h72q65 -42 174 -92q172 -114 275 -167q64 -21 213 -137h25q-31 -106 -189 -453q-86 -47 -166 -134q-155 -173 -222 -215l-27 -21h-61l67 11v-34 q-235 -271 -332 -315q-160 -96 -291 -206q-47 -30 -288 -66q-17 -15 -54 -15l-17 16v-9q-10 0 -162 -50h-33v38q122 61 128 61q1 0 -1 -2h1q8 0 8 -4q0 -12 -86 -63h-73l185 144v-5l7 202v3q0 626 43 845l19 97l-6 92l16 139l-1 15l-242 67h-28v42q300 64 356 64h-2v-32 q-301 62 -413 62zM93 3v43h56v-43h-56zM427 321q108 54 109 57v52zM556 526q155 166 226 209q171 145 335 306q175 141 187 159l16 46h28q-145 25 -188 40l-13 13v17l16 16h16l188 -7h-22v-36q-10 0 -10 33l3 3v-18q-335 72 -625 142q-28 -87 -28 -117v13h-47q0 12 82 70h37 v-24q0 -39 -63 -177q-106 -453 -138 -688zM1075 572q41 21 42 23h62q-49 -24 -48 -23h-56zM1127 1831v43h57v-43h-57z" />
<glyph unicode="E" horiz-adv-x="1591" d="M0 9l66 79v-73l-18 -35h-48v29zM25 12v26q33 80 58 302l111 407l21 166q16 0 30 93v-6h47v-6h-63q76 267 76 413h-67v40l70 22v34q-130 -13 -247 -13l-3 3h-31l181 302h36q-34 0 -34 33l16 16h53q0 -9 -11 -9l85 -6l231 9l270 -6l322 16l210 -10q47 0 105 19l234 7v-47 q-33 0 -206 -132l-138 -90h-34l-10 31h42q0 -28 -62 -28q-14 -12 -46 -27q0 -20 -116 -56h-17l-7 5l-211 -43l-177 -319h-36l614 185l-610 -249v29h-25q130 31 512 73l114 8v-39l-773 -399l-44 -108v20h-47q0 1 77 73h40q0 -33 -115 -261h-37q816 158 1013 220q1 9 67 21 v-36q-96 -86 -269 -172l-139 -70l-12 -14v36l120 53l44 7q32 0 50 -36q-58 -56 -191 -101q-562 -174 -720 -251q-243 -87 -313 -135h-38zM1367 1811v44l55 5h55v-43l-45 -6h-65z" />
<glyph unicode="F" horiz-adv-x="1690" d="M-9 -62l61 274q63 265 63 287v122l-5 60q12 0 31 135l113 568l34 133q-17 12 -51 12v50l3 -1q-51 55 -98 65l-109 62l165 86q0 -26 97 -30l494 36q680 19 773 56l125 22v-12h12l190 -3v-31q-183 -148 -217 -182q-198 -228 -353 -343q-103 -78 -144 -78v29l159 196 q12 15 11 12h38l-36 -23h-67l17 17h48q-144 0 -616 -106q-62 -4 -62 -13q-33 -64 -106 -240l1 -1h-31l3 4h40v-24q0 -18 -28 -92h-34l475 152q-20 -54 -187 -120l-9 -6h-71l485 134v-39q-134 -124 -361 -218q-211 -87 -377 -187q-130 -210 -218 -442q-63 -129 -203 -341 q-46 0 -46 20h-9zM100 530q0 91 23 212h58q-23 -148 -23 -212h-58zM124 710v52h58v-52h-58zM2004 2228v50h27l67 7v-49zM2056 2238v48h58v-48h-58z" />
<glyph unicode="G" horiz-adv-x="1652" d="M0 73v31q0 71 84 350l6 87l-20 273q0 33 192 273q74 80 181 158l-14 -19h45q-211 -68 -362 -185l-34 -26h-45q39 118 313 329q198 122 218 122v-36q-70 0 -488 -145q666 363 1007 503q189 65 343 94v-41l-277 -177v26h-24q60 25 107 62q268 52 400 52h41v-38l-491 -237 v27h-26l461 157l-435 -283q-225 -115 -655 -459q-76 -134 -76 -202q-14 -41 -33 -154h-54v20h47v-74q0 -89 -14 -113h3l116 -4q57 0 296 88q151 66 312 181q52 38 55 38q1 0 -3 -4q19 10 19 15q0 9 -45 9q-54 0 -174 -13q-345 -20 -345 -32l-123 -28v36q66 74 307 154v-30 h27q-158 -53 -239 -53l-39 8v30q54 47 402 177l487 213q145 60 189 60h40l-88 -175l-66 -79h42q0 -59 -213 -436q-283 -411 -758 -619h-31l-7 2l-11 -2l-116 -4v39q52 20 51 18h31q-57 0 -318 53l-53 4q-76 -4 -145 -21zM825 862h43v36h-43v-36zM835 865h43v37h-43v-37z M1056 1653l6 4v-27h43q0 2 -20 -6v29h-29z" />
<glyph unicode="H" horiz-adv-x="1495" d="M0 17v23q0 112 52 279q0 121 113 613l6 44v-18h39l-52 -119h-52q43 279 136 562q81 229 81 265l-12 19q14 23 36 38q3 -9 4 -9h-34v24q23 135 52 135h250q29 0 34 -37l-10 9h-8l36 8l10 -32q-5 -32 -46 -89v48l174 131q0 -56 15 -69v-14q0 -33 -10 -51q-61 -68 -61 -81 q0 -3 3 -3h189q-177 -40 -250 -209q-26 -64 -166 -336h4q227 12 390 14l52 149q14 157 52 157q3 156 16 172l-40 114q-11 0 -37 52h48l116 -41q-25 20 -66 67l22 23h20q130 -48 260 -156q35 -31 47 -31q5 0 5 7q61 48 133 48l17 -16q0 -25 -99 -118h-54l89 14 q0 -37 -47 -116q-28 -107 -74 -149q-91 -106 -120 -151h-38l77 3l34 -8v-35l-119 -36q-60 -104 -197 -416q-10 -11 -10 -2h-32l105 83v-58q-46 -83 -127 -262q-53 -97 -239 -344l-123 -196v89q51 195 95 268h30l3 -3h-27l-1 -1l-9 45l169 632h33q-77 -28 -462 -213 q-26 -42 -111 -279q-61 -141 -272 -437h-42z" />
<glyph unicode="I" horiz-adv-x="826" d="M0 1500v29q12 17 233 101v-29h-123l-20 20v11q0 35 129 51v-33h12l-141 -13v43q191 58 450 90q44 0 168 48v-15l-60 71h59q85 -31 125 -102l44 -70v-11q0 -68 -51 -130h-54l45 42h30l20 -20q0 -40 -71 -149q-30 -117 -151 -301q-187 -306 -198 -460v17h-38l49 87h53 q-71 -282 -204 -579q-165 -373 -267 -445l-29 29q29 57 108 531v27q0 -4 -49 8q32 67 67 480l69 316q0 75 38 103l-7 171q36 26 87 40v-25q-254 67 -323 67zM240 1653h36v37h-36v-37zM465 752v38l12 46h52v-27q0 -31 -64 -57z" />
<glyph unicode="J" horiz-adv-x="1279" d="M0 0q20 37 43 193q30 122 182 414l18 38v-20h47q0 -9 -32 -9h-28q0 66 56 207l6 32h53q0 -68 -3 -78q-6 -6 -8 -6q-3 0 -3 5q0 19 33 109h50v-40q0 -166 -36 -453v-7l-6 30l21 20q240 221 421 352q94 88 94 117q43 0 43 3l-16 -16h-43v26q20 45 55 256h3v-14h47v-13h-54 l-9 69q7 67 27 155h53v-27h-45l11 82q-5 36 5 36q-172 41 -303 160q0 17 -24 17q-207 40 -236 55q-3 6 -37 13l-20 -3h-129v45q525 31 706 54v-47l-53 -6v33h-20q211 30 342 57l-14 -20h-40l214 30v-51q-17 0 -27 -168q-62 -396 -62 -539h-52l-10 45q15 0 15 -47 q0 -57 -22 -183v-21q0 -12 11 -26q-19 -104 -418 -421q-268 -199 -625 -411l140 149v-35h29l-323 -167zM33 1703v47h162v-47h-162zM381 203h58l77 63q-121 -49 -135 -63zM698 1628h44v37h-44v-37zM726 1625h25v29l157 -54q0 -7 -19 -7q-40 0 -163 32zM793 720v65 q80 107 129 122v-40q-30 -48 -129 -147zM833 1742h40v37h-40v-37zM875 861v47h53v-47h-53zM1177 1798v47h56v-47h-56zM1190 1801v47h56v-47h-56z" />
<glyph unicode="K" horiz-adv-x="1746" d="M0 -286q3 42 86 191v-103q-23 -112 -57 -112h-29v24zM43 -157q29 252 75 453q82 317 82 501v-13h47q0 -18 -40 -18q-64 37 -102 77q67 205 67 308q0 68 89 364l11 77q0 72 -25 72l-22 29v22l86 28v-28q-79 4 -79 33v18l190 53v-16l-22 29v35q318 -71 425 -82l15 -16v-31 l-57 -18v30h8l121 -4v-29q-100 -109 -100 -116q0 -67 -120 -261q-149 -332 -149 -361q183 139 462 278q119 70 240 177l-8 -2q0 46 68 74v-10q-107 158 -107 219l111 -82v-47q-31 47 -129 164h56l217 -88q235 -118 259 -140l5 1q107 -37 107 -75l-17 -17h-16q-24 0 -73 32 h57v1q5 0 105 -55l94 -98v-30h-40q-103 29 -133 32h23v28q19 -9 39 -34v-22q-1023 -403 -1156 -449l-17 -6v18q280 -217 351 -241q84 -41 139 -108v-62q-91 74 -187 96q92 -81 145 -171q254 -378 378 -594v-41q-250 110 -690 374q-127 75 -254 180v35l172 -21 q-133 121 -225 241q-33 36 -33 47q0 4 6 4q-76 -151 -279 -509l-124 -259h-46v24z" />
<glyph unicode="L" horiz-adv-x="1734" d="M0 -25q20 34 34 115q199 471 199 680v-17h41q-19 -51 -126 -215v87q27 83 70 272q104 192 104 228l137 518q0 4 -39 4q0 7 -20 7v23q0 19 49 38v-28l-93 3l-34 8v35q339 118 415 118l161 27l57 -13l41 12l11 -34q0 -15 -53 -113l-9 -42v19h-39q15 29 98 134v-75 q-17 -46 -27 -123q-53 -125 -102 -331q-29 -64 -27 -54l-5 -4v-52q-111 -216 -197 -460l-86 -244h-38q44 24 162 61q324 126 414 126q432 65 601 137q1 6 87 38v-42q-70 -66 -85 -71v30h-26l91 26l42 -41q-47 -63 -680 -350q-416 -171 -617 -291l-77 -37v28h46v-41 l-456 -120zM349 96l12 3v-30h22l-15 -4v31h-19zM823 1205v76q57 118 125 163v-49q-62 -114 -125 -190zM1596 714h22l8 2v31h-22l-8 -2v-31zM1605 717h44v37h-44v-37z" />
<glyph unicode="M" horiz-adv-x="1762" d="M0 0q185 648 300 1172q18 63 18 99h54l3 -23h-42l7 62l-4 15q18 36 30 125q15 158 51 158q3 5 3 -15q-74 -19 -102 -19h-25l-26 27q24 24 126 61q5 3 5 -15h24l-142 -19v44q67 20 455 176l8 -8h-7l264 -20l15 -30l-40 -126q-37 -189 -37 -270v-16l14 -155h-45 q0 17 58 149q12 26 21 89h54q0 -179 -186 -662l81 181l-40 -59q89 96 267 336q188 243 237 323q33 53 52 53q0 -1 -1 -1q-7 0 -51 42l-9 9v23l37 12l16 -7l-78 110v32q61 0 200 -94q162 -103 245 -103v-24q0 -29 -13 -29v37h-27l22 7l21 -21v-10q0 -64 -102 -203 q-144 -254 -345 -779l-63 -145h-55l53 200v-19h39q-105 -225 -265 -456q-73 -115 -152 -212h-48q51 318 115 503q80 210 184 456v-20h47v1q-4 0 -45 -62q0 -48 -165 -247q-106 -166 -345 -443q-22 -30 -46 -42v-12h-57v71l13 370q-13 48 -13 111l45 465v-18h40 q-51 -141 -140 -332l-32 -177h-25q-37 0 -37 73h42q-38 -159 -122 -323q-70 -89 -186 -383q1 0 1 4l-17 -17h-48l91 416v-18h40l-159 -378h-56zM661 1785l71 71h50v-41zM1660 1566q53 43 53 47q0 1 -1 1v-37h27q-25 -16 -29 -16q-2 0 2 5h-52z" />
<glyph unicode="N" horiz-adv-x="1406" d="M0 -13q127 534 127 616q20 127 144 577l4 -10h30l-112 -167h-43v23q0 28 65 169l135 563q-78 53 -123 68v40h28q127 0 427 -113q17 -15 -17 -1q-1 1 -1 59h57q0 -26 86 -73l134 -163l69 -62v-78h-46q0 5 61 79v18h56v-24q0 -52 -101 -269q-102 -359 -102 -660v17h-43 q17 111 219 501v-20h32l-103 -84v60q87 152 227 360q25 55 94 257h50l7 -290q0 -46 -19 -192l4 -15l-69 -166q0 -48 -84 -250q-186 -554 -186 -598l-39 -179h-38l-263 333l-34 88h38l-6 -83h-55v21q-13 67 -23 629v52l4 238v45q1 1 1 0q0 -8 -49 -143l-2 -2v-68 q-115 -287 -298 -659q-61 -132 -188 -444h-55z" />
<glyph unicode="O" horiz-adv-x="1646" d="M0 586v70q0 18 117 244q29 98 238 594q103 172 103 227v25l103 23v-20q-37 15 -37 35v27l21 20l315 -18v-1q-3 0 -115 81h75q136 -32 202 -63q26 -18 202 -60q77 -29 113 -29h4l39 8q11 -46 48 -70q102 -118 122 -241q27 -89 27 -124q-81 -427 -133 -568 q-54 -123 -200 -227v25h-30q56 33 135 53l20 -20v-15q-54 -74 -154 -142q-86 -57 -396 -293q-241 -147 -285 -147q0 38 -75 91q-27 53 -38 61q-203 219 -278 416q-31 71 -39 166zM419 725h4v27q2 0 33 -100q0 -8 120 -207l-1 4h-41v-19l-14 42h42l43 -20h-1q0 4 62 52 q365 190 442 249l6 15l15 -10l-113 -45v37q3 18 169 162q38 58 81 287l4 64l-3 128h45q-8 -108 -57 -108q-81 144 -165 213q-100 70 -123 70v24q128 -118 128 -146q0 -26 -380 -46l8 2v26l59 -17v-24q-93 -103 -160 -277l-102 -201l-44 -139h-52l8 97v-18h39zM1499 1461h56 l25 -86q-61 0 -81 86z" />
<glyph unicode="P" horiz-adv-x="1543" d="M0 3q0 188 137 590q35 163 35 331l13 120l-45 -69v87q131 521 196 614l-27 27q0 30 36 35l-4 -2q-52 65 -52 98h136q6 39 42 39l85 -39q435 0 789 -73v-39q-72 0 -74 -2h-56q237 13 320 37l-14 -57l31 -110q36 -205 36 -374v-27h-28q-32 0 -73 91h40q0 -134 -105 -350 q-22 -69 -80 -69q-302 -62 -653 -62l-137 3h19v34l75 -10v-38q-180 -43 -191 -43h-1l-42 -120v29l45 27l5 5l50 17v-34q-5 -38 -282 -445l-184 -244h-42v23zM535 989q195 51 301 95l316 149l-52 -77v-7q-2 9 1 9h15q132 10 132 23q33 18 33 32v6l3 161l-11 43h42v18l7 -49 l-31 -31q-35 41 -251 53q-216 29 -226 29v13q-89 -162 -242 -467h-37z" />
<glyph unicode="Q" horiz-adv-x="1650" d="M9 453q136 273 163 385q45 223 45 432l41 41h55l-129 -57l-22 22v17q269 239 489 378q154 98 294 98h-42q-8 8 -97 29h-25v46q132 0 505 -105l68 -32l-3 -2h41q0 -18 71 -37q61 -24 61 -42q5 -1 9 -22h-42v-13l6 203l9 27h43q66 -137 98 -283q30 -171 30 -304v-15l7 -53 l-10 -20l10 -33h-14v11q0 -34 -153 -569q-61 -179 -87 -183q-16 -12 -21 -19h46l-137 -81q3 -34 171 -206h-63l-62 43h34q5 -26 123 -132l26 -11v-39h-28q-61 0 -216 62q-54 0 -151 48q-29 57 -29 73q0 5 4 5q-287 -145 -398 -145l-65 -4h-33q-111 0 -240 52h28v22l15 -20 l-22 -21h-25q-102 80 -160 165l-140 179v29h29l4 3h-10q0 21 -66 64zM445 669q36 -104 36 -323h-24q111 13 180 13q53 0 61 -33l-6 -22h-28l188 -13q55 0 146 64q-49 137 -249 253l-189 105h88l97 -28h1q9 0 107 26l-2 -6q-24 55 -104 134h67q46 -29 35 -29q0 -1 -1 -1 q-5 0 -51 45l-28 50l38 13q60 0 166 -110q9 0 141 -125q77 -38 77 -86q26 -54 33 -81h-23q54 26 103 174q16 32 64 210q29 62 79 73v-32l-8 -33q-36 0 -33 15v52q39 98 39 195v26q-1 12 -1 22q0 39 10 39l-75 -34v-40h-40l-15 14q-13 49 -108 157l7 -10v76l69 -150 q-81 0 -235 107q-48 23 -12 23l29 -32v-30q-192 0 -427 -128q-55 -49 -79 -63v27h-21l92 14v-35q-95 -92 -133 -195q-61 -205 -61 -288zM1635 1188l28 134h53v-36q0 -25 -26 -98h-55z" />
<glyph unicode="R" horiz-adv-x="1742" d="M0 -189q99 599 126 731v-18h41q-36 -110 -68 -137h-41q41 414 87 528q70 186 140 513q70 146 70 182q-34 23 -70 59v24l63 21v-30h-18l-77 5v39l176 59v-19l-130 42v41l239 -7q0 -7 -17 -7q-27 0 -96 17v47q217 -40 522 -76q345 -64 394 -92q37 -30 221 -66 q101 -12 101 -60l-21 -4v26l204 -66v-24l-249 -256q-490 -403 -739 -446v22q71 0 431 -342q29 -37 29 -74h-39q-64 58 -64 66q0 1 2 1v21q97 -166 460 -666v-34q-53 10 -837 458l-158 98v35l99 8q-191 188 -289 319h23q-39 -39 -133 -274q-307 -663 -350 -664h-32zM463 783 l10 -12q11 8 39 48zM589 1026q145 29 223 69q157 92 232 120v-41q-24 -29 -24 -1q154 113 163 150l-68 74v58l11 -77l-25 -25q-62 39 -305 65q-132 -239 -207 -392z" />
<glyph unicode="S" horiz-adv-x="1773" d="M0 -182l213 260q56 51 53 51v-36h20q-29 -10 -140 -110v61q53 74 166 150q57 50 734 571q45 44 45 34h3l-75 5q0 17 -21 20q-79 33 -430 60q-126 24 -258 74l-95 89q77 194 113 365l24 63q0 7 -41 7v34q96 54 536 200q292 92 470 92q0 -18 -41 24v30h28q91 0 323 -150 l-4 1l-25 -19q23 0 23 77v38l38 37q49 -87 74 -160v-46q0 -74 34 -74v-31q-43 -67 -384 -182q-49 -22 -108 -63h-58q60 75 70 75q3 0 2 -5q-5 -2 -78 -2q120 108 164 121v-30h23q-355 -47 -507 -97q-158 -40 -165 -46q-24 -44 -101 -69v35l17 67v-18h38q-70 -125 -70 -158 l5 -30l-38 -37q52 -12 69 -28l155 -7l626 10q303 -10 426 -34v-27q-59 -54 -280 -224l13 16h-47l91 30v-40q-334 -319 -442 -373q-310 -203 -994 -491zM1649 1698h43v36h-43v-36z" />
<glyph unicode="T" horiz-adv-x="1588" d="M0 1337q29 52 196 153q213 144 397 226v-28h25l-182 -42v47l271 75q0 -48 -36 -60v29h-21q437 87 617 87h16q54 -13 54 -23h-47v55h47l61 -99q13 105 58 105q173 -307 207 -382l-20 -19h-20q-88 30 -367 48l-60 2q-49 -91 -156 -326q-41 -64 -41 -68q15 0 15 -45h-35 l169 83l19 -38q0 -50 -242 -377q-33 -75 -179 -222q-151 -151 -179 -213l-278 -378v83q68 137 189 494q121 338 121 459l-80 -97h-41v23q0 82 180 431l21 73h-65l-96 4q-264 0 -518 -60z" />
<glyph unicode="U" horiz-adv-x="1529" d="M0 3q0 47 42 222l26 295v-11h42l-19 -84h-52q0 141 87 638q23 293 65 463q15 118 15 171q0 -1 -38 7v32l45 16v-25l-113 22v35q267 91 396 91h-22v-22l-66 93h56q178 -135 204 -171q10 -38 10 -39l27 6l20 -20q-25 -163 -46 -177h-24l-3 3h27q-81 -203 -123 -387l-25 -78 q-11 -9 -14 -9q-2 0 -1 2q0 9 33 60h53l-262 -880h-28q213 0 631 104q19 197 74 415q48 178 48 253l77 300q0 10 -169 199h62q61 -46 59 -46v-16q0 16 -181 158h70q403 -80 439 -80l109 -28v-43l-81 5q-17 0 -13 2q2 -7 32 -7q0 -10 33 -18v-29q-34 -17 -88 -215 q-43 -254 -84 -373q-45 -113 -70 -329q-19 -141 -74 -141l-11 14q-31 -28 -31 -73l4 -32q-195 -137 -338 -200v45l92 80l-5 5v23q18 20 14 8q-68 -23 -321 -88l-111 -49l-295 -51q-104 -35 -107 -39l-39 -30h-38v23zM494 109v46q43 0 217 64l68 13v-44q-176 -79 -285 -79z " />
<glyph unicode="V" horiz-adv-x="1255" d="M0 1554v23q0 27 193 48h19l34 -3h-23v-29l-90 37v39h28q57 0 210 -110q27 -14 -6 -14l-86 140l46 31q115 -153 146 -177q24 0 24 -58v-125h-36q-16 10 -23 10h-21v17q0 -6 33 -66l5 -23q-13 -29 -35 -34h-6q-26 0 -19 -7v51l13 -68q-16 -56 -38 -307q-21 -121 -71 -582 h-1q-7 0 -7 13q0 35 56 167q94 141 149 239h-12v28q41 51 79 170q165 381 172 412q17 117 23 134q-45 22 -64 55l20 20h16l116 -8l-104 70q-51 53 -350 181v38h28q403 0 617 -163q63 -48 63 -83l-22 -22l-104 52v38q210 -260 210 -290q0 -44 -176 -302q-193 -360 -381 -618 l-417 -498h-45l4 115q-28 232 -49 483q-4 3 -19 89l9 172q-28 79 -28 108q41 41 44 41q0 -4 -77 67q19 26 55 347q0 25 -54 60l-7 35q32 17 61 17h-38q-43 40 -64 40zM406 1613q59 0 76 -71q-58 0 -76 71zM427 1546v70l56 -57v-69z" />
<glyph unicode="W" horiz-adv-x="1475" d="M0 -20q31 153 88 897l-2 17h34l-16 -37h-50v23q0 49 34 381v9l-14 195l34 234q0 2 -47 37v29l90 24v-23q-61 25 -100 25v45l114 8l231 -3q13 0 45 50h42q40 -159 75 -164q-38 -203 -78 -289q-89 -271 -89 -472l9 45q22 18 168 177v-71l33 74l79 78l161 172h40l7 -217 q-20 -309 -30 -594v17h-39q284 656 381 854q46 114 132 278l6 39h54q0 -108 -97 -393q0 -90 -84 -407l-6 -68v17h-40q14 38 91 92l29 -28q-90 -194 -90 -246q-19 -82 -54 -397q-36 -151 -36 -248v-30h-55q-15 145 -21 160h39q0 -87 -168 -286h-47l19 80l-7 3v21l7 10v49 q0 44 -2 51q-121 -110 -210 -178h-44q59 758 79 910q17 62 22 62q1 0 1 -6l-140 -165q-256 -410 -281 -439q-123 -140 -161 -226q-75 -138 -75 -176h-61z" />
<glyph unicode="X" horiz-adv-x="1517" d="M0 1624v30q42 42 277 111q90 25 228 46q13 -29 -10 -12v-39q0 18 -39 83l21 21h27q40 -38 63 -94q23 -21 95 -180l59 -66v-17l1 1q129 -181 129 -225q14 -26 30 -79h-32q12 17 12 46q0 49 55 59l12 -28h-29l104 160l3 6q-12 24 -12 54q88 64 93 64l-30 30v28q0 30 -14 30 q-82 65 -186 92v41l322 8l19 -7l-25 34v29h38q276 -185 300 -217l-50 -35q14 -46 90 -185q23 -44 23 -102h-42q-108 141 -137 141v20q23 -51 46 -51v-35q-93 -140 -282 -365q-97 -100 -97 -102q192 -597 414 -1063q-424 487 -661 806q-267 -234 -383 -385l-263 -318v77 q107 166 332 594q54 75 56 98q33 0 1 -38h-49v23q0 28 127 185v-2q-59 121 -124 176l3 -3h34v19l48 -167h-47q-116 131 -178 260q-207 238 -207 321q-59 28 -99 64q43 41 138 76v-24l-41 9l-102 -3h-61z" />
<glyph unicode="Y" horiz-adv-x="1447" d="M0 -247q71 180 254 850l88 256v21l-8 11l18 103q-49 256 -74 256v50h61q-8 0 -8 -19q-38 46 -38 65l-50 258l-2 36l-69 18v42h29v-33l-66 10h24v33l21 -3v-44h-29q-50 0 -122 65h37v-36h30l-40 -41q0 51 -50 69v40q159 0 492 54v-46l-28 -8v28h2h58q67 0 67 -44 q-46 -26 -46 -44l-18 -145q0 -114 56 -390q12 -25 12 -65v13q-15 0 14 56l3 2l-15 41q76 36 116 101q23 48 298 428v-3q0 -1 -2 -1q-14 0 -150 46v40h85v-31l-212 46v42h30l194 -14l262 7l147 -20l6 6h25l65 -11v-43h-48h-1q-2 7 10 7q22 0 85 -20l44 -44q-126 0 -229 -253 l-41 -170l-60 24h-10q-44 -6 -44 -39l4 -18v-30q-94 -84 -305 -342q-99 -129 -129 -139q-93 -22 -93 -45q0 -74 -132 -293q-124 -322 -218 -494l-13 -14h-44v25l21 92v-18h41q-10 -33 -216 -261l-60 -49zM91 1684h43v37h-43v-37zM105 1681h40v36h-40v-36zM137 1660v47h57 v-47h-57z" />
<glyph unicode="Z" horiz-adv-x="1825" d="M-117 -388q0 41 78 231v-19h45v-8h-57v27q23 51 100 153v-82l34 75q-11 -12 -11 -6q0 3 -19 3v29q167 227 295 533q92 206 392 599l167 190q134 157 134 184q-100 -41 -208 -41v41q70 23 98 23q18 0 18 -10q-26 0 -315 -156q-175 -60 -288 -159q-31 -23 -31 -160v-39h-56 q-27 313 -45 313q-17 104 -157 265v30h29q49 0 67 -10v-30q0 16 -157 157q81 52 206 52q448 97 600 97v-42l-247 -69v30h-19l645 62q157 -4 384 -23l291 12v-46q-60 -6 -109 -38v21h-24l136 30v-37q-283 -318 -328 -436q0 -45 -221 -261l-348 -370q-213 -221 -337 -381h-50 q79 48 323 249q233 175 688 475q77 62 190 133h75q-91 -74 -102 -74q-2 0 -2 1h-25q29 8 166 96h28l17 -17v-18q-179 -158 -275 -286q-128 -124 -633 -509q-368 -271 -699 -490q-252 -205 -341 -291q-35 -31 -84 -31l-18 18v10z" />
<glyph unicode="[" horiz-adv-x="569" />
<glyph unicode="\" horiz-adv-x="569" />
<glyph unicode="]" horiz-adv-x="569" />
<glyph unicode="^" horiz-adv-x="961" />
<glyph unicode="_" />
<glyph unicode="`" horiz-adv-x="682" />
<glyph unicode="a" horiz-adv-x="980" d="M0 10q33 49 107 294l305 765v-52q-10 -12 -54 -12l-19 18q73 170 98 212q23 27 23 20h-20q-39 0 -132 50l-24 6v45q55 -10 107 -10h68q74 0 98 -8v-33l-79 84l22 22h14q47 0 188 -45q23 -8 54 -90q19 -17 39 -86l52 -279h-49l-32 53h39v18l7 -87l-3 -123l10 -120v-4 l-2 -64q17 -265 45 -452l29 -70h-45q-24 14 -48 88l8 -8h35v17q0 -72 -43 -148h-46q0 96 -118 265l-86 159q135 -130 135 -143q0 -2 -2 -2q-16 82 -16 108v48l-6 120h31l-225 -157v52l24 30h51q-102 -64 -182 -134q-79 -49 -94 -70q-90 -143 -264 -353v76zM258 1311v45h55 v-45h-55zM398 601q43 24 151 74l56 35h36v-26l-12 -25h-33q6 0 55 34v-6q0 78 -57 224l9 -30l1 1q3 0 -135 -247l-23 -34h-48z" />
<glyph unicode="b" horiz-adv-x="1363" d="M-18 -95q57 51 202 153q4 3 4 55q36 329 51 401q28 104 28 143v-17h39q-33 -61 -88 -96v46q31 129 83 400l38 124q0 15 -18 71l-14 -11q68 16 26 16h-48v45q48 0 144 63v-17l-69 39v35q95 0 203 -38q0 -7 -5 -7q-15 0 -75 69h59q170 -109 202 -123q52 -14 137 -59 q167 -53 211 -112l-110 9h24v30q125 -54 254 -54v-29q-255 -255 -302 -270l-81 -57v38h-24q129 41 293 41l34 -3l291 -8v-29q-117 -111 -293 -222q-239 -157 -399 -252l-168 -96h-59l52 64v-57l-62 4l8 8h58q-22 -40 -64 -66h-65l30 30v-25h30l-24 -13v28h-25l93 18 q-151 -126 -311 -217q-1 0 -61 -111h-47v23q0 48 -1 41q-7 -2 -162 -41l-19 19v17zM317 179q168 144 211 199l82 101h47q-14 -51 -15 -74h-30q5 2 55 71q100 103 100 106l-2 -1h60q-302 -26 -302 -35q-54 -10 -64 -10q-3 0 -3 1q-36 -118 -62 -294q-40 -65 -40 -64h-37z M363 613l342 177q104 101 154 122l32 32l30 -5h-11l-9 -8l-111 45v35l28 -49v-45q-95 47 -185 68v22q-33 -118 -104 -274q-28 -62 -33 -81l28 -28q-39 0 -28 44q-29 -20 -42 -36h46zM472 131l45 45h66l-45 -45h-66z" />
<glyph unicode="c" horiz-adv-x="1208" d="M0 242q36 52 106 215l-2 2v9q0 67 127 275q49 85 193 213l61 37v-27h26q-56 -15 -160 -81q-56 -34 -75 -34h-60q355 303 527 395q122 68 360 179l27 -27l-9 -13l7 -70q-113 -106 -113 -103h-27q202 65 319 65v-45q-33 0 -381 -214v27h-29l159 27q-92 -49 -179 -107 q-98 -64 -260 -223q-234 -264 -234 -326h9l-16 -86v19h-43q7 28 51 69h17q36 0 40 -85l-3 -25v38l-34 -35h35l79 -5q362 71 571 141l126 37v-38q-76 -75 -130 -95v30h-32q27 20 112 20h69v-38q-284 -109 -756 -313q-126 -70 -192 -70h-17l-21 21l4 45q-44 19 -198 142z" />
<glyph unicode="d" horiz-adv-x="1294" d="M0 1304v43q349 26 422 26l186 -5h37q0 -10 24 -10q253 -35 336 -72q23 -14 36 -14h-22v-30q-19 8 -198 164h70q50 -33 132 -71q129 -85 205 -125q49 -15 160 -102h24q-25 -86 -144 -347q-65 -36 -125 -101q-117 -130 -167 -162l-9 -7h-62l57 9v-33q-178 -206 -252 -238 q-119 -72 -217 -154q-37 -24 -217 -51q-13 -12 -47 -12l-16 16v-11l-114 -37h-32v36q82 41 88 41q2 0 -4 -4h2q15 0 15 -6q0 -11 -56 -45h-72l148 115v-5l5 151v2q0 470 33 635l14 73l-5 68l13 104l-1 8l-177 49h-25v40q230 50 272 50h-7v-34q-221 46 -310 46zM69 -2v42h55 v-42h-55zM299 221q114 57 115 62v54zM432 412q103 110 156 143q128 108 251 229q131 106 139 118l10 27h28q-109 19 -144 31l-12 12v16l16 16h15l141 -5h-23v-37q-8 0 -8 31l3 3v-20q-247 53 -458 104q-20 -59 -20 -81v15h-48q0 6 66 52h36v-23q0 -30 -47 -133 q-79 -340 -101 -498zM811 434q28 15 19 7h62q-21 -11 -26 -11q-3 0 1 4h-56zM845 1368v43h55v-43h-55z" />
<glyph unicode="e" horiz-adv-x="1172" d="M0 8l62 75v-72l-15 -31h-47v28zM16 1115l136 226h37q-32 0 -32 32l16 15h49q0 -7 -15 -7l64 -5l173 8l203 -5l241 12l158 -7q34 0 78 14l182 5v-45q-28 0 -156 -98l-106 -69h-33l-7 24h42q0 -22 -50 -22q-9 -7 -31 -17q0 -16 -92 -45h-15l-5 3l-152 -31l-128 -230h-37 l563 170l-553 -226v30h-26q97 24 384 55l92 7v-38l-581 -300l-31 -78v20h-48q0 -2 62 55h38q0 -31 -83 -195h-38q611 118 755 163q1 7 62 18v-35q-74 -66 -205 -131l-103 -52l-6 -8v37l81 35l34 6q29 0 46 -33q-47 -45 -149 -79q-421 -131 -539 -188q-182 -65 -236 -102h-36 v25q24 61 43 227l84 305l16 129q12 0 22 64v-9h47v-5h-61q59 206 59 310h-50v39l52 16v17q-91 -10 -182 -10l-2 3h-31zM1025 1353v42l47 5h48v-41l-39 -6h-56z" />
<glyph unicode="f" horiz-adv-x="1173" d="M-9 -67l47 212q47 198 47 214v91l-4 50q10 0 24 97l84 427l25 96q-8 7 -37 7v47l-6 1q-28 30 -62 38l-90 51l141 73q0 -24 66 -27l370 27q509 15 578 42l103 18v-10h2l149 -3v-30q-139 -112 -164 -137q-149 -172 -265 -258q-79 -60 -119 -60v28l120 149q9 10 6 1h39 l-27 -17h-66l13 12h49q-107 0 -461 -79q-42 -3 -42 -6q-25 -49 -78 -179l-1 4h-32l3 3h39v-23q0 -14 -19 -64h-35l367 118q-19 -53 -146 -103l7 5h-72l371 102v-38q-102 -95 -274 -166q-158 -65 -281 -139q-96 -156 -162 -330q-47 -97 -155 -259q-44 0 -44 15h-8zM74 377 q0 74 18 169h56q-18 -116 -18 -169h-56zM92 512v49h56v-49h-56z" />
<glyph unicode="g" horiz-adv-x="1246" d="M0 48v30q0 54 63 263l5 65l-15 205q0 26 144 207q56 61 137 119l-17 -23h46q-156 -49 -268 -137l-28 -20h-44q32 95 239 255q150 93 161 93v-38q-45 0 -417 -128q554 302 810 407q142 48 266 72v-40l-208 -133v27h-26q43 18 79 46q204 40 303 40h37v-37l-368 -177v28h-27 l385 131l-361 -235q-168 -85 -489 -343q-56 -98 -56 -149q-11 -31 -26 -120h-52v15h48v-50q0 -68 -7 -80h-8l88 -3q40 0 219 66q112 49 232 134q51 39 16 3q28 14 28 21q0 10 -41 10q-38 0 -109 -8q-253 -15 -253 -23l-105 -24v35q52 58 230 118v-31h28q-118 -40 -181 -40 l-35 7v28q43 37 305 135l365 161q111 44 144 44h40l-46 -91l-82 -99h41q0 -50 -161 -334q-213 -310 -572 -467h-26l-5 2l-7 -2l-93 -3v38q40 15 35 5h32q-44 0 -239 40l-39 2q-56 -2 -115 -17zM619 641h45v38h-45v-38zM626 644h45v37h-45v-37zM796 1245h1v-28h45q0 4 -15 -2 v30h-31z" />
<glyph unicode="h" horiz-adv-x="1116" d="M0 7v23q0 85 39 210q0 91 85 460l4 32v-18h40l-38 -89h-51q33 215 102 427q61 171 61 196l-9 16q12 20 27 30q4 -14 10 -14h-32v24q18 106 45 106h188q27 0 31 -31l-10 10h-11l33 6l10 -29q-5 -26 -35 -68v49l130 98q0 -52 12 -61v-13q0 -26 16 4q-76 -84 -76 -97 q0 -3 3 -3h186q-173 -39 -227 -163q-19 -49 -121 -246h-6q170 9 288 11l38 107q10 122 39 122q2 113 11 125l-28 79q-8 0 -32 49h46l58 -20q4 -3 -30 35l22 22h19q100 -37 198 -118q41 -36 41 -10q37 30 97 30l15 -16q0 -22 -67 -85h-54l73 11q0 -34 -35 -94 q-21 -81 -57 -114q-67 -79 -84 -105h-39l58 3l31 -8v-33q-89 -27 -89 -25q-45 -78 -148 -313q-7 -8 -7 6h-33l88 69v-56q-35 -64 -96 -198q-40 -73 -179 -258l-104 -166v88q38 148 73 206h30l2 -3h-29l-1 -5l-7 34l125 469h34q-56 -21 -343 -159q-19 -29 -82 -207 q-46 -106 -206 -332h-42z" />
<glyph unicode="i" horiz-adv-x="619" d="M0 1066v27q11 16 174 78v-30h-88l-18 18v10q0 31 96 43v-34h16l-112 -11v42q148 44 343 68q32 0 120 35v-16l-50 60h57q67 -24 98 -80l34 -53v-10q0 -52 -33 -92h-56l34 31h29l18 -18q0 -33 -53 -115q-23 -88 -114 -226q-140 -229 -148 -343v18h-39l37 65h52 q-55 -218 -156 -441q-124 -280 -206 -339l-28 28q22 45 82 400v19q0 -7 -40 3q27 55 53 364l52 236q0 58 28 80l-5 128q30 22 65 32v-27q-185 50 -242 50zM180 1180h39v38h-39v-38zM349 501v37l10 39h50v-25q0 -26 -60 -51z" />
<glyph unicode="j" horiz-adv-x="950" d="M0 0q16 29 33 145q23 92 137 312l13 28v-21h48q0 -7 -30 -7h-28q0 55 43 162l5 28h51q0 -58 6 -40q-13 -14 -18 -14q-4 0 -4 7q0 17 19 69h49v-35q0 -125 -27 -340v-5l-7 34l7 7q181 165 316 264q69 64 69 79q45 0 45 6l-16 -16h-41v26q15 33 42 196h2v-20h47v-10h-52 l-8 56q6 51 22 121h51v-19h-45l7 56q-3 22 9 22q-132 31 -233 123q0 9 -12 9q-157 31 -182 44q-1 3 -23 7l-14 -2h-103v44q399 23 542 42v-46l-40 -5v35h-22q158 22 270 45l-13 -18h-41l167 23v-48q-12 0 -19 -122q-47 -297 -47 -409h-51l-7 34q20 0 20 -50q0 -42 -14 -118 v-16q0 -7 9 -17q-15 -82 -316 -321q-201 -150 -503 -329q132 141 129 141v-37h30l-246 -126zM26 1272v45h133v-45h-133zM281 147h58l87 71q-127 -52 -145 -71zM525 1216h45v37h-45v-37zM551 1213h26v31l105 -37q0 -13 -27 -13q-32 0 -104 19zM596 525v65q62 83 109 98v-39 q-23 -38 -109 -124zM625 1302h43v37h-43v-37zM657 641v45h53v-45h-53zM883 1344v45h55v-45h-55zM893 1346v45h55v-45h-55z" />
<glyph unicode="k" horiz-adv-x="1265" d="M0 -286q3 31 77 166v-102q-18 -88 -49 -88h-28v24zM32 -190q22 190 57 341q61 237 61 374v-15h48q0 -13 -39 -13q-50 29 -81 61q51 156 51 233q0 52 67 274l8 56q0 49 -16 49l-19 26v21l64 21v-29q-59 3 -59 29v17l142 40v-16l-16 21v35q246 -55 328 -64l15 -15v-28 l-43 -14v31h-1l97 -4v-28q-75 -81 -75 -84q0 -52 -90 -198q-111 -249 -111 -257q127 96 337 200q88 52 164 119l7 2q0 44 51 65v-11q-81 118 -81 176l84 -62v-47q-23 33 -103 129h56l164 -67q177 -89 193 -103h2q86 -30 86 -63l-16 -16h-14q-21 0 -57 24h58l-2 2l1 1 q7 0 71 -35l72 -75v-30h-37q-78 22 -100 24h24v29q13 -6 30 -27v-21q-771 -303 -871 -338l-9 -3v19q207 -161 260 -179q65 -32 107 -84v-60q-77 63 -127 74q55 -48 95 -116q191 -283 285 -446v-41q-198 87 -528 286q-96 56 -193 136v34l119 -14q-89 80 -158 170 q-32 37 -10 37q-56 -110 -209 -379l-94 -197h-45v23z" />
<glyph unicode="l" horiz-adv-x="1297" d="M0 -26q16 28 27 88q149 353 149 509v-18h41q-12 -35 -105 -176v86q20 63 53 204q77 145 77 171l103 388q0 -2 -29 -2q0 5 -15 5v22q0 17 37 32v-29l-65 2l-31 8v32q260 91 318 91l121 20l42 -10l35 10l11 -31q0 -13 -40 -86l-7 -31v20h-39q10 19 83 113v-75 q-12 -34 -20 -92q-39 -94 -76 -249q-23 -48 -17 -26l-7 -5v-51q-84 -163 -148 -345l-63 -177h-38q32 18 121 45q244 95 312 95q323 49 446 101q1 5 77 34v-41q-55 -53 -64 -56v31h-26l71 21l37 -37q-39 -51 -515 -267q-312 -128 -462 -218l-55 -26v29h34v-40l-350 -92z M268 70l4 1v-31h24l-6 -2v32h-22zM618 881v74q44 91 107 132v-49q-48 -86 -107 -157zM1198 524h23l12 3v32h-24l-11 -3v-32zM1205 526h45v38h-45v-38z" />
<glyph unicode="m" horiz-adv-x="1323" d="M0 -5q140 492 226 885q14 47 14 78h52l3 -17h-43l5 41l-3 13q13 27 22 93q12 123 40 123q1 0 1 -23q-49 -12 -71 -12h-21l-25 24q22 23 99 51q1 0 1 -20h25l-113 -16v42q54 17 349 135l7 -7h-8l202 -16l14 -26l-30 -96q-29 -141 -29 -202v-11l11 -112h-46q0 9 44 108 q9 20 15 71h53q0 -140 -140 -503l89 197l-69 -102q67 72 200 253q141 181 178 241q26 43 38 43q0 -14 -37 22l-9 8v23l35 11l-6 3l-48 68v30q55 0 160 -72q120 -76 186 -76v-23q0 -27 -9 -27v38h-28l20 6l20 -19v-10q0 -49 -77 -154q-108 -190 -259 -584l-49 -112h-53 l42 155v-19h39q-77 -166 -198 -340q-54 -86 -116 -161h-46q39 244 88 383q60 158 137 341v-20h48q0 9 -34 -42q0 -37 -125 -187q-79 -124 -258 -332q-18 -24 -34 -32v-11h-55v58l9 278q-9 35 -9 83l33 349v-19h42q-38 -102 -104 -245l-25 -137h-24q-34 0 -34 55h43 q-28 -115 -91 -239q-53 -67 -140 -290q2 0 2 6l-16 -16h-46l69 318v-20h40l-119 -283h-54zM486 1329l68 68h46v-39zM1250 1180q45 36 35 36v-38h29q-12 -9 -15 -9t4 11h-53z" />
<glyph unicode="n" horiz-adv-x="1080" d="M0 -15q97 406 97 467q15 96 108 433l4 -13h31l-84 -125h-42v22q0 23 49 129l100 419q-55 37 -91 50v38h27q97 0 324 -86q13 -12 -37 10q14 -16 14 34h54q0 -22 63 -56l101 -123l54 -48v-55h-48l46 56v17h55v-23q0 -40 -76 -203q-76 -269 -76 -494v18h-45q12 79 164 372 v-22h32l-86 -69v57q66 116 171 272q19 40 72 195h48l5 -222q0 -34 -14 -144l3 -12l-51 -125q0 -35 -64 -188q-139 -414 -139 -447l-30 -139h-37l-200 253l-25 63h40l-5 -63h-53v21q-10 50 -17 472v39l2 178v17q3 4 5 4q1 0 1 -3q0 -11 -20 -66l-11 -12v-66 q-86 -217 -223 -496q-46 -98 -143 -336h-53z" />
<glyph unicode="o" horiz-adv-x="1265" d="M0 422v70q0 15 88 184q22 74 178 447q78 128 78 168v23l76 17v-22q-27 11 -27 29v22l19 18l227 -12l1 -2q0 -5 -91 61h73q104 -25 155 -49q18 -13 149 -44q57 -21 83 -21h2l35 7q9 -38 36 -55q78 -91 93 -184q20 -67 20 -94q-60 -321 -100 -427q-41 -94 -150 -171v26h-30 q41 24 105 40l19 -18v-15q-42 -57 -118 -109q-64 -43 -296 -220q-183 -111 -224 -111q0 31 -56 70q-20 40 -28 46q-153 165 -209 314q-24 53 -29 110zM317 571l7 78v-19h40l-39 -91h4v30q1 0 25 -79q0 -6 90 -154l-2 6h-41v-20l-13 37h42l32 -15q-10 0 40 38 q274 143 330 185l3 8l18 -12l-91 -36v36q3 15 128 124q28 42 60 213l2 47l-2 92h46q-6 -82 -52 -82q-62 111 -125 161q-72 52 -81 52v24q96 -88 96 -111q0 -24 -290 -39l11 2v27l44 -13v-23q-70 -77 -120 -208l-76 -150l-35 -108h-51zM1123 1101h55l21 -75q-59 0 -76 75z " />
<glyph unicode="p" horiz-adv-x="1159" d="M0 2q0 142 103 443q26 122 26 248l7 66l-31 -48v86q99 392 146 459l-19 20q0 28 30 32l-8 -6q-37 47 -37 78h103q4 30 38 30l64 -30q325 0 596 -55v-38q-57 0 -47 8h-57q177 10 249 30l-13 -50l24 -82q27 -154 27 -281v-25h-28q-28 0 -59 68h40q0 -96 -79 -259 q-17 -55 -64 -55q-227 -47 -491 -47l-103 3h21v34l56 -7v-37q-126 -30 -142 -30q-2 0 -2 1l-32 -90v32l24 14l4 5l48 16v-34q-4 -29 -213 -335l-140 -186h-41v22zM406 747q145 38 224 70l256 121l-48 -72v-4q-3 11 -6 11h11q93 8 93 15q25 14 25 21v5l2 120l-7 29h42v18 l6 -38l-30 -30q-29 34 -189 42q-161 22 -162 22v14q-67 -123 -178 -344h-39z" />
<glyph unicode="q" horiz-adv-x="1237" d="M9 324q104 209 124 292q33 167 33 325l25 24h55l-100 -44l-21 21v17q204 181 370 285q117 75 224 75h-44q3 -4 -61 11h-25v45q107 0 388 -80l47 -21l-3 -4h39q0 -14 50 -28q50 -19 50 -32q2 -1 5 -15h-43v-15l5 153l8 25h41q52 -107 76 -217q22 -129 22 -229v-11l5 -40 l-7 -16v2l10 -30h-13v13q0 -27 -115 -428q-47 -138 -69 -141q-9 -7 -7 -5h42l-115 -68q2 -21 135 -156h-63l-46 31h35q2 -12 89 -90l22 -8v-38h-28q-47 0 -163 47q-41 0 -117 37q-28 57 -12 57q-215 -109 -300 -109l-49 -2h-25q-84 0 -181 39h29v22l12 -17l-21 -20h-24 q-79 62 -123 126l-106 136v28h25l3 2h-11q0 9 -47 39zM350 489q27 -78 27 -238h-24q83 10 135 10q45 0 52 -30l-3 -11h-29l142 -10q38 0 101 45q-35 98 -182 184l-159 87h87l66 -18q0 -1 4 -1q14 0 78 17l-3 -9q-17 39 -84 106h65q35 -22 17 -22q0 -11 -37 26l-24 43l35 11 q50 0 129 -82q7 0 107 -95q59 -29 59 -68q20 -40 24 -56h-24q37 18 73 127q12 24 48 157q23 49 71 60v-30l-4 -20q-40 0 -41 -6l3 2v50q29 74 29 146v19q-2 41 14 41l-52 -23v-33h-39l-14 14q-9 36 -80 117l17 -24v77l54 -118q-72 0 -189 81q-34 16 7 16l16 -18v-28 q-148 0 -323 -95q-41 -37 -57 -46v27h-22l76 12v-34q-72 -70 -101 -146q-45 -153 -45 -214zM1229 873l23 110h51v-32q0 -19 -20 -78h-54z" />
<glyph unicode="r" horiz-adv-x="1294" d="M0 -189q75 455 96 554v-19h41q-26 -80 -53 -103h-40q31 317 66 403q52 138 105 384q52 109 52 133q-24 16 -53 45v22l48 16v-30h-8l-63 4v37l131 44v-21l-97 32v39l179 -5q0 -11 -22 -11q-21 0 -62 10v45q170 -32 398 -58q261 -49 299 -71q27 -21 162 -48q81 -9 81 -54 l-15 -3v27l153 -50v-23l-189 -193q-368 -304 -552 -335v25q50 0 322 -258q23 -30 23 -64h-38q-42 38 -42 47q0 3 4 3v22q72 -123 345 -499v-34q-49 10 -638 347l-121 75v33l69 5q-136 135 -208 231h23q-26 -27 -96 -203q-232 -500 -269 -501h-31zM347 546l13 -17q15 9 57 69 zM459 735q96 19 154 48q118 69 184 94v-40q-19 -22 -19 12q104 76 110 100l-39 41v60l9 -60l-24 -25q-50 32 -226 51q-97 -176 -149 -281z" />
<glyph unicode="s" horiz-adv-x="1339" d="M0 -182l178 217q44 40 38 40v-37h23q-19 -6 -112 -90v60q40 57 126 115q43 37 550 428q32 31 32 17h9l-63 4q0 13 -11 14q-60 25 -322 45q-96 19 -196 57l-74 70q58 147 85 276l18 46h-31v33q75 43 406 152q220 70 348 70q0 -21 -30 11v29h27q70 0 245 -113l-8 2l-32 -25 q27 0 27 63v30l36 35q41 -72 60 -128v-35q0 -51 26 -51v-30q-35 -52 -292 -139q-36 -16 -81 -48h-57q44 56 54 56q3 0 3 -4q0 -2 -1 -5q1 0 1 1q0 3 -64 3q99 90 130 99v-31h24q-265 -35 -378 -72q-118 -30 -121 -33q-19 -34 -87 -57v35l13 50v-19h38q-50 -90 -50 -113 l4 -24l-24 -24q32 -7 44 -19l113 -5l470 8q227 -8 325 -27v-26q-46 -42 -211 -169l16 20h-48l76 25v-39q-252 -241 -334 -282q-233 -153 -746 -369zM1253 1242h45v37h-45v-37z" />
<glyph unicode="t" horiz-adv-x="1191" d="M0 995q28 50 155 126q159 109 295 169v-29h26l-144 -33v45l216 60q0 -46 -27 -55v30h-23q328 65 463 65h14q45 -11 45 -17h-48v41h46l37 -62q9 67 52 67q132 -234 158 -293l-18 -19h-19q-67 23 -275 36l-40 2q-35 -65 -116 -241q-30 -48 -30 -44q11 0 11 -39l1 5h-35 l131 65l18 -36q0 -39 -182 -285q-25 -57 -135 -167q-113 -113 -134 -159l-220 -300v81q51 104 142 371q90 253 90 327l-50 -62h-41v23q0 62 136 325l14 48h-41l-72 3q-197 0 -400 -48z" />
<glyph unicode="u" horiz-adv-x="1159" d="M0 2q0 36 32 167l19 221v-13h43l-14 -63h-51q0 111 65 484q17 220 49 347q12 88 12 128q0 -5 -29 2v30l34 12v-26l-85 17v34q205 69 303 69h-22v-22l-55 76h56q136 -104 156 -132q7 -28 5 -25l19 4l20 -19q-20 -126 -39 -139h-23l-3 2h28q-59 -149 -91 -287l-12 -40 q-17 -14 -22 -14q-2 0 -2 3q0 8 21 39h52l-196 -660h-30q159 0 468 77q13 145 55 308q35 133 35 189l59 225q0 6 -133 154h61q46 -34 35 -34v-18q0 10 -144 125h68q303 -61 330 -61l87 -22v-41l-67 4q-11 0 -3 4q-1 2 24 2q0 -9 24 -15v-28q-26 -13 -66 -160 q-32 -190 -63 -280q-34 -84 -53 -246q-14 -110 -64 -110l-6 8q-17 -15 -17 -47l4 -26q-150 -105 -267 -157v44l68 59l-2 2v20q13 16 7 -4q-40 -13 -229 -62l-83 -36l-222 -39q-76 -25 -78 -28l-31 -24h-37v22zM370 77v45q38 0 167 47l60 11v-42q-137 -61 -227 -61z" />
<glyph unicode="v" horiz-adv-x="972" d="M0 1161v22q0 24 151 41h15l25 -2h-24v-30l-67 28v36h27q45 0 161 -83q19 -9 -18 -9l-63 101l45 29q89 -119 110 -135q22 0 22 -48v-99h-35q-12 7 -15 7h-10v18q0 -3 24 -48l4 -19q-11 -25 -32 -30h-5q-22 0 -8 -14v52l10 -51q-12 -43 -28 -231q-16 -91 -53 -430h-1 q-11 0 -12 17q0 30 36 114q71 106 108 172h-5v28q31 39 59 128q123 285 129 308q12 88 16 97q-31 16 -48 44l19 20h16l80 -6q0 -1 -1 -1q-9 0 -75 45q-38 39 -265 136v37h28q304 0 467 -124q49 -38 49 -68l-21 -21l-74 36v40q158 -196 158 -220q0 -33 -132 -228 q-145 -270 -287 -464l-314 -376h-44l3 91q-21 174 -36 360q-3 2 -15 69l7 129q-21 59 -21 83q34 34 33 34q0 -2 -1 -2q-8 0 -58 47q15 21 43 261q0 16 -40 42l-7 31q29 15 53 15h-42q-22 21 -41 21zM303 1215q57 0 73 -64q-57 0 -73 64zM320 1158v68l55 -55v-68z" />
<glyph unicode="w" horiz-adv-x="1141" d="M0 -20q25 120 67 678l-1 7h36l-13 -27h-47v22q0 37 25 286v6l-10 147l25 175l-35 26v28l67 17v-24q-41 17 -75 17v43l92 7l174 -2q6 0 29 37h41q30 -120 58 -124q-30 -157 -60 -222q-66 -202 -66 -353l10 49q2 2 123 133v-69l37 83l35 35l123 131h39l6 -168 q-15 -232 -23 -446v18h-40q212 489 284 637q35 86 99 209l5 32h52q0 -86 -72 -300q0 -67 -63 -305l-5 -51v18h-41q10 26 74 72l28 -28q-68 -147 -68 -185q-15 -62 -40 -299q-28 -113 -28 -185v-27h-53q-11 113 -14 120h40q0 -62 -130 -215h-45l14 62l-4 2v20l5 8v35 q0 33 1 28q-82 -75 -152 -128h-41q44 574 59 688q18 61 18 25l-94 -110q-192 -307 -211 -329q-92 -105 -120 -168q-56 -104 -56 -136h-59z" />
<glyph unicode="x" horiz-adv-x="1136" d="M0 1213v29q34 35 212 86q68 19 177 36q11 -25 -18 -3v-41q0 12 -30 63l20 20h26q33 -31 50 -73q18 -16 71 -135l45 -51v-15l2 2q96 -135 96 -168q10 -19 21 -55h-32q5 9 5 30q0 40 52 50l10 -22h-31l77 117l1 2q-8 17 -8 43q63 46 63 51h-1l-15 15v23q0 28 -20 28 q-49 39 -130 60v39l248 6l-2 1l-9 14v27h36q210 -140 232 -168l-39 -27q9 -32 66 -136q18 -33 18 -83h-41q-81 106 -93 106v21q15 -34 34 -34v-33q-70 -106 -213 -275q-71 -74 -71 -73q143 -447 328 -834q-347 398 -521 632q-194 -170 -280 -283l-210 -252v75 q82 125 251 447q40 55 40 66q35 0 11 -29h-46v23q0 22 95 140v-4q-44 89 -91 130l4 -4h34v19l38 -130h-47q-88 101 -136 198q-155 179 -155 240q-42 19 -77 51q37 34 106 60v-25l-25 5l-76 -2h-52z" />
<glyph unicode="y" horiz-adv-x="1078" d="M0 -248q54 138 192 639l65 192v14l-6 9l14 78q-36 187 -55 187v48h51q-12 0 -12 -21q-29 34 -29 49l-37 193l-2 25l-51 13v40h21v-34l-43 7h24v34l16 -3v-41h-27q-41 0 -107 58h36v-37h32l-39 -40q0 50 -38 63v38q125 0 382 42v-45l-21 -5v29h-5h43q57 0 57 -41 q-34 -19 -34 -30l-14 -109q0 -85 42 -291q9 -19 9 -50v15q-22 0 -1 40l-11 31q60 29 88 76q17 36 224 321v-4q0 -2 -4 -2q-17 0 -110 32v39h63v-33l-159 35v40h29l145 -10l197 5l108 -14l4 3h22l54 -9v-41h-42l8 -1q-1 2 -1 4q0 8 14 8q16 0 54 -12l42 -42q-103 0 -179 -186 l-32 -133l-51 20h-6q-27 -4 -27 -24l3 -13v-25q-72 -65 -229 -257q-76 -99 -101 -107q-65 -15 -65 -29q0 -56 -100 -222q-92 -241 -163 -371l-13 -12h-42v24l16 69v-19h42q-7 -22 -162 -194l-50 -41zM69 1197h45v37h-45v-37zM80 1194h42v37h-42v-37zM103 1178v45h56v-45h-56 z" />
<glyph unicode="z" horiz-adv-x="1325" d="M-117 -390q0 31 58 174v-20h48v-6h-56v26q17 40 87 132v-80l40 87q-35 -38 -35 -35q0 -2 -15 -2v28q126 170 222 400q70 155 295 450l125 143q100 116 100 126q-68 -27 -157 -27v39q44 15 66 15q21 0 21 -14q-11 0 -227 -116q-130 -45 -214 -118q-21 -16 -21 -116v-35 h-54q-21 235 -34 235q-13 81 -119 202v29h28q39 0 45 -3v-32q0 10 -121 118q67 44 163 44q336 73 456 73v-40l-185 -53v32h-20l483 46q119 -3 289 -17l224 9v-44q-48 -5 -81 -26v23h-25l109 23v-35q-214 -239 -246 -326q0 -35 -168 -198l-260 -278q-160 -165 -247 -278h-51 q57 35 240 186q175 131 516 356q58 47 145 101h73q-70 -58 -83 -58q-3 0 -3 3h-27q20 6 124 73h26l16 -16v-18q-135 -119 -207 -215q-97 -93 -476 -382q-276 -203 -524 -368q-189 -154 -255 -218q-29 -25 -71 -25l-17 17v9z" />
<glyph unicode="{" horiz-adv-x="684" />
<glyph unicode="|" horiz-adv-x="532" />
<glyph unicode="}" horiz-adv-x="684" />
<glyph unicode="~" horiz-adv-x="1196" />
<glyph unicode="&#xa1;" horiz-adv-x="682" />
<glyph unicode="&#xa2;" />
<glyph unicode="&#xa3;" />
<glyph unicode="&#xa4;" />
<glyph unicode="&#xa5;" />
<glyph unicode="&#xa6;" horiz-adv-x="532" />
<glyph unicode="&#xa7;" />
<glyph unicode="&#xa8;" horiz-adv-x="682" />
<glyph unicode="&#xa9;" horiz-adv-x="1509" />
<glyph unicode="&#xaa;" horiz-adv-x="758" />
<glyph unicode="&#xab;" />
<glyph unicode="&#xac;" horiz-adv-x="1196" />
<glyph unicode="&#xad;" horiz-adv-x="682" />
<glyph unicode="&#xae;" horiz-adv-x="1509" />
<glyph unicode="&#xaf;" horiz-adv-x="1131" />
<glyph unicode="&#xb0;" horiz-adv-x="819" />
<glyph unicode="&#xb1;" horiz-adv-x="1124" />
<glyph unicode="&#xb2;" horiz-adv-x="682" />
<glyph unicode="&#xb3;" horiz-adv-x="682" />
<glyph unicode="&#xb4;" horiz-adv-x="682" />
<glyph unicode="&#xb5;" horiz-adv-x="1180" />
<glyph unicode="&#xb6;" horiz-adv-x="1100" />
<glyph unicode="&#xb7;" horiz-adv-x="569" />
<glyph unicode="&#xb8;" horiz-adv-x="682" />
<glyph unicode="&#xb9;" horiz-adv-x="682" />
<glyph unicode="&#xba;" horiz-adv-x="748" />
<glyph unicode="&#xbb;" />
<glyph unicode="&#xbc;" horiz-adv-x="1708" />
<glyph unicode="&#xbd;" horiz-adv-x="1708" />
<glyph unicode="&#xbe;" horiz-adv-x="1708" />
<glyph unicode="&#xbf;" horiz-adv-x="1251" />
<glyph unicode="&#xc0;" horiz-adv-x="1366" />
<glyph unicode="&#xc1;" horiz-adv-x="1366" />
<glyph unicode="&#xc2;" horiz-adv-x="1366" />
<glyph unicode="&#xc3;" horiz-adv-x="1366" />
<glyph unicode="&#xc4;" horiz-adv-x="1366" />
<glyph unicode="&#xc5;" horiz-adv-x="1366" />
<glyph unicode="&#xc6;" horiz-adv-x="2048" />
<glyph unicode="&#xc7;" horiz-adv-x="1479" />
<glyph unicode="&#xc8;" horiz-adv-x="1366" />
<glyph unicode="&#xc9;" horiz-adv-x="1366" />
<glyph unicode="&#xca;" horiz-adv-x="1366" />
<glyph unicode="&#xcb;" horiz-adv-x="1366" />
<glyph unicode="&#xcc;" horiz-adv-x="569" />
<glyph unicode="&#xcd;" horiz-adv-x="569" />
<glyph unicode="&#xce;" horiz-adv-x="569" />
<glyph unicode="&#xcf;" horiz-adv-x="569" />
<glyph unicode="&#xd0;" horiz-adv-x="1479" />
<glyph unicode="&#xd1;" horiz-adv-x="1479" />
<glyph unicode="&#xd2;" horiz-adv-x="1593" />
<glyph unicode="&#xd3;" horiz-adv-x="1593" />
<glyph unicode="&#xd4;" horiz-adv-x="1593" />
<glyph unicode="&#xd5;" horiz-adv-x="1593" />
<glyph unicode="&#xd6;" horiz-adv-x="1593" />
<glyph unicode="&#xd7;" horiz-adv-x="1196" />
<glyph unicode="&#xd8;" horiz-adv-x="1593" />
<glyph unicode="&#xd9;" horiz-adv-x="1479" />
<glyph unicode="&#xda;" horiz-adv-x="1479" />
<glyph unicode="&#xdb;" horiz-adv-x="1479" />
<glyph unicode="&#xdc;" horiz-adv-x="1479" />
<glyph unicode="&#xdd;" horiz-adv-x="1366" />
<glyph unicode="&#xde;" horiz-adv-x="1366" />
<glyph unicode="&#xdf;" horiz-adv-x="1251" />
<glyph unicode="&#xe0;" />
<glyph unicode="&#xe1;" />
<glyph unicode="&#xe2;" />
<glyph unicode="&#xe3;" />
<glyph unicode="&#xe4;" />
<glyph unicode="&#xe5;" />
<glyph unicode="&#xe6;" horiz-adv-x="1821" />
<glyph unicode="&#xe7;" horiz-adv-x="1024" />
<glyph unicode="&#xe8;" />
<glyph unicode="&#xe9;" />
<glyph unicode="&#xea;" />
<glyph unicode="&#xeb;" />
<glyph unicode="&#xec;" horiz-adv-x="569" />
<glyph unicode="&#xed;" horiz-adv-x="569" />
<glyph unicode="&#xee;" horiz-adv-x="569" />
<glyph unicode="&#xef;" horiz-adv-x="569" />
<glyph unicode="&#xf0;" />
<glyph unicode="&#xf1;" />
<glyph unicode="&#xf2;" />
<glyph unicode="&#xf3;" />
<glyph unicode="&#xf4;" />
<glyph unicode="&#xf5;" />
<glyph unicode="&#xf6;" />
<glyph unicode="&#xf7;" horiz-adv-x="1124" />
<glyph unicode="&#xf8;" horiz-adv-x="1251" />
<glyph unicode="&#xf9;" />
<glyph unicode="&#xfa;" />
<glyph unicode="&#xfb;" />
<glyph unicode="&#xfc;" />
<glyph unicode="&#xfd;" horiz-adv-x="1024" />
<glyph unicode="&#xfe;" />
<glyph unicode="&#xff;" horiz-adv-x="1024" />
<glyph unicode="&#x152;" horiz-adv-x="2048" />
<glyph unicode="&#x153;" horiz-adv-x="1933" />
<glyph unicode="&#x178;" horiz-adv-x="1366" />
<glyph unicode="&#x2c6;" horiz-adv-x="682" />
<glyph unicode="&#x2dc;" horiz-adv-x="682" />
<glyph unicode="&#x2000;" horiz-adv-x="1143" />
<glyph unicode="&#x2001;" horiz-adv-x="2286" />
<glyph unicode="&#x2002;" horiz-adv-x="1143" />
<glyph unicode="&#x2003;" horiz-adv-x="2286" />
<glyph unicode="&#x2004;" horiz-adv-x="762" />
<glyph unicode="&#x2005;" horiz-adv-x="571" />
<glyph unicode="&#x2006;" horiz-adv-x="381" />
<glyph unicode="&#x2007;" horiz-adv-x="381" />
<glyph unicode="&#x2008;" horiz-adv-x="285" />
<glyph unicode="&#x2009;" horiz-adv-x="457" />
<glyph unicode="&#x200a;" horiz-adv-x="127" />
<glyph unicode="&#x2010;" horiz-adv-x="682" />
<glyph unicode="&#x2011;" horiz-adv-x="682" />
<glyph unicode="&#x2012;" horiz-adv-x="682" />
<glyph unicode="&#x2013;" />
<glyph unicode="&#x2014;" horiz-adv-x="2048" />
<glyph unicode="&#x2018;" horiz-adv-x="455" />
<glyph unicode="&#x2019;" horiz-adv-x="455" />
<glyph unicode="&#x201a;" horiz-adv-x="455" />
<glyph unicode="&#x201c;" horiz-adv-x="682" />
<glyph unicode="&#x201d;" horiz-adv-x="682" />
<glyph unicode="&#x201e;" horiz-adv-x="682" />
<glyph unicode="&#x2022;" horiz-adv-x="717" />
<glyph unicode="&#x2026;" horiz-adv-x="2048" />
<glyph unicode="&#x202f;" horiz-adv-x="457" />
<glyph unicode="&#x2039;" horiz-adv-x="682" />
<glyph unicode="&#x203a;" horiz-adv-x="682" />
<glyph unicode="&#x205f;" horiz-adv-x="571" />
<glyph unicode="&#x20ac;" />
<glyph unicode="&#x2122;" horiz-adv-x="2048" />
<glyph unicode="&#x25fc;" horiz-adv-x="1405" d="M0 0v1405h1405v-1405h-1405z" />
</font>
</defs>
</svg>
